<mxfile host="app.diagrams.net" modified="2023-12-22T11:59:38.541Z" agent="Mozilla/5.0 (Macintosh; Intel Mac OS X 10_15_7) AppleWebKit/537.36 (KHTML, like Gecko) Chrome/120.0.0.0 Safari/537.36" etag="e02hbZgU1CqtkMKOswkC" version="22.1.11" type="device" pages="3">
  <diagram id="C5RBs43oDa-KdzZeNtuy" name="welcome and login">
    <mxGraphModel dx="1026" dy="650" grid="1" gridSize="10" guides="1" tooltips="1" connect="1" arrows="1" fold="1" page="1" pageScale="1" pageWidth="827" pageHeight="1169" background="#FFFFFF" math="0" shadow="0">
      <root>
        <mxCell id="WIyWlLk6GJQsqaUBKTNV-0" />
        <mxCell id="WIyWlLk6GJQsqaUBKTNV-1" parent="WIyWlLk6GJQsqaUBKTNV-0" />
        <mxCell id="vKtdDU81Kl_IgtTz4fY1-0" value="Load Logo" style="rounded=0;whiteSpace=wrap;html=1;" vertex="1" parent="WIyWlLk6GJQsqaUBKTNV-1">
          <mxGeometry x="354" y="40" width="120" height="60" as="geometry" />
        </mxCell>
        <mxCell id="vKtdDU81Kl_IgtTz4fY1-1" value="Load instructions" style="rounded=0;whiteSpace=wrap;html=1;" vertex="1" parent="WIyWlLk6GJQsqaUBKTNV-1">
          <mxGeometry x="354" y="120" width="120" height="60" as="geometry" />
        </mxCell>
        <mxCell id="vKtdDU81Kl_IgtTz4fY1-2" value="" style="endArrow=classic;html=1;rounded=0;entryX=0.5;entryY=0;entryDx=0;entryDy=0;exitX=0.5;exitY=1;exitDx=0;exitDy=0;" edge="1" parent="WIyWlLk6GJQsqaUBKTNV-1" source="vKtdDU81Kl_IgtTz4fY1-0" target="vKtdDU81Kl_IgtTz4fY1-1">
          <mxGeometry width="50" height="50" relative="1" as="geometry">
            <mxPoint x="390" y="360" as="sourcePoint" />
            <mxPoint x="440" y="310" as="targetPoint" />
          </mxGeometry>
        </mxCell>
        <mxCell id="vKtdDU81Kl_IgtTz4fY1-3" value="Do you have&lt;br&gt;a login? y/n" style="shape=parallelogram;perimeter=parallelogramPerimeter;whiteSpace=wrap;html=1;fixedSize=1;" vertex="1" parent="WIyWlLk6GJQsqaUBKTNV-1">
          <mxGeometry x="354" y="200" width="120" height="60" as="geometry" />
        </mxCell>
        <mxCell id="vKtdDU81Kl_IgtTz4fY1-4" value="" style="endArrow=classic;html=1;rounded=0;entryX=0.5;entryY=0;entryDx=0;entryDy=0;exitX=0.5;exitY=1;exitDx=0;exitDy=0;" edge="1" parent="WIyWlLk6GJQsqaUBKTNV-1" source="vKtdDU81Kl_IgtTz4fY1-1" target="vKtdDU81Kl_IgtTz4fY1-3">
          <mxGeometry width="50" height="50" relative="1" as="geometry">
            <mxPoint x="424" y="110" as="sourcePoint" />
            <mxPoint x="424" y="130" as="targetPoint" />
          </mxGeometry>
        </mxCell>
        <mxCell id="vKtdDU81Kl_IgtTz4fY1-5" value="Input uname&lt;br&gt;Input pword" style="shape=parallelogram;perimeter=parallelogramPerimeter;whiteSpace=wrap;html=1;fixedSize=1;" vertex="1" parent="WIyWlLk6GJQsqaUBKTNV-1">
          <mxGeometry x="354" y="310" width="120" height="60" as="geometry" />
        </mxCell>
        <mxCell id="vKtdDU81Kl_IgtTz4fY1-6" value="" style="endArrow=classic;html=1;rounded=0;exitX=0.5;exitY=1;exitDx=0;exitDy=0;entryX=0.5;entryY=0;entryDx=0;entryDy=0;" edge="1" parent="WIyWlLk6GJQsqaUBKTNV-1" source="vKtdDU81Kl_IgtTz4fY1-3" target="vKtdDU81Kl_IgtTz4fY1-5">
          <mxGeometry width="50" height="50" relative="1" as="geometry">
            <mxPoint x="390" y="360" as="sourcePoint" />
            <mxPoint x="440" y="310" as="targetPoint" />
          </mxGeometry>
        </mxCell>
        <mxCell id="vKtdDU81Kl_IgtTz4fY1-7" value="Yes" style="text;html=1;strokeColor=none;fillColor=none;align=center;verticalAlign=middle;whiteSpace=wrap;rounded=0;" vertex="1" parent="WIyWlLk6GJQsqaUBKTNV-1">
          <mxGeometry x="400" y="270" width="60" height="30" as="geometry" />
        </mxCell>
        <mxCell id="vKtdDU81Kl_IgtTz4fY1-8" value="Enter new&lt;br&gt;uname &amp;amp;&lt;br&gt;pword" style="shape=parallelogram;perimeter=parallelogramPerimeter;whiteSpace=wrap;html=1;fixedSize=1;" vertex="1" parent="WIyWlLk6GJQsqaUBKTNV-1">
          <mxGeometry x="500" y="200" width="120" height="60" as="geometry" />
        </mxCell>
        <mxCell id="vKtdDU81Kl_IgtTz4fY1-9" value="" style="endArrow=classic;html=1;rounded=0;exitX=1;exitY=0.5;exitDx=0;exitDy=0;entryX=0;entryY=0.5;entryDx=0;entryDy=0;" edge="1" parent="WIyWlLk6GJQsqaUBKTNV-1" source="vKtdDU81Kl_IgtTz4fY1-3" target="vKtdDU81Kl_IgtTz4fY1-8">
          <mxGeometry width="50" height="50" relative="1" as="geometry">
            <mxPoint x="390" y="360" as="sourcePoint" />
            <mxPoint x="440" y="310" as="targetPoint" />
          </mxGeometry>
        </mxCell>
        <mxCell id="vKtdDU81Kl_IgtTz4fY1-10" value="No" style="text;html=1;strokeColor=none;fillColor=none;align=center;verticalAlign=middle;whiteSpace=wrap;rounded=0;" vertex="1" parent="WIyWlLk6GJQsqaUBKTNV-1">
          <mxGeometry x="450" y="230" width="60" height="30" as="geometry" />
        </mxCell>
        <mxCell id="vKtdDU81Kl_IgtTz4fY1-11" value="Save details to&amp;nbsp;&lt;br&gt;google sheet" style="rounded=0;whiteSpace=wrap;html=1;" vertex="1" parent="WIyWlLk6GJQsqaUBKTNV-1">
          <mxGeometry x="660" y="200" width="120" height="60" as="geometry" />
        </mxCell>
        <mxCell id="vKtdDU81Kl_IgtTz4fY1-12" value="" style="endArrow=classic;html=1;rounded=0;entryX=0;entryY=0.5;entryDx=0;entryDy=0;exitX=1;exitY=0.5;exitDx=0;exitDy=0;" edge="1" parent="WIyWlLk6GJQsqaUBKTNV-1" source="vKtdDU81Kl_IgtTz4fY1-8" target="vKtdDU81Kl_IgtTz4fY1-11">
          <mxGeometry width="50" height="50" relative="1" as="geometry">
            <mxPoint x="390" y="360" as="sourcePoint" />
            <mxPoint x="440" y="310" as="targetPoint" />
          </mxGeometry>
        </mxCell>
        <mxCell id="vKtdDU81Kl_IgtTz4fY1-13" value="" style="endArrow=classic;html=1;rounded=0;exitX=0.5;exitY=1;exitDx=0;exitDy=0;entryX=1;entryY=0.5;entryDx=0;entryDy=0;" edge="1" parent="WIyWlLk6GJQsqaUBKTNV-1" source="vKtdDU81Kl_IgtTz4fY1-11" target="vKtdDU81Kl_IgtTz4fY1-5">
          <mxGeometry width="50" height="50" relative="1" as="geometry">
            <mxPoint x="390" y="360" as="sourcePoint" />
            <mxPoint x="440" y="310" as="targetPoint" />
            <Array as="points">
              <mxPoint x="720" y="300" />
              <mxPoint x="720" y="340" />
            </Array>
          </mxGeometry>
        </mxCell>
        <mxCell id="vKtdDU81Kl_IgtTz4fY1-14" value="Details&lt;br&gt;valid" style="rhombus;whiteSpace=wrap;html=1;" vertex="1" parent="WIyWlLk6GJQsqaUBKTNV-1">
          <mxGeometry x="374" y="400" width="80" height="80" as="geometry" />
        </mxCell>
        <mxCell id="vKtdDU81Kl_IgtTz4fY1-16" value="" style="endArrow=classic;html=1;rounded=0;exitX=0.5;exitY=1;exitDx=0;exitDy=0;entryX=0.5;entryY=0;entryDx=0;entryDy=0;" edge="1" parent="WIyWlLk6GJQsqaUBKTNV-1" source="vKtdDU81Kl_IgtTz4fY1-5" target="vKtdDU81Kl_IgtTz4fY1-14">
          <mxGeometry width="50" height="50" relative="1" as="geometry">
            <mxPoint x="390" y="360" as="sourcePoint" />
            <mxPoint x="440" y="310" as="targetPoint" />
          </mxGeometry>
        </mxCell>
        <mxCell id="vKtdDU81Kl_IgtTz4fY1-19" value="Enter uname&lt;br&gt;&amp;amp; pword" style="rounded=0;whiteSpace=wrap;html=1;" vertex="1" parent="WIyWlLk6GJQsqaUBKTNV-1">
          <mxGeometry x="350" y="310" width="120" height="60" as="geometry" />
        </mxCell>
        <mxCell id="vKtdDU81Kl_IgtTz4fY1-21" value="" style="endArrow=classic;html=1;rounded=0;exitX=0.5;exitY=1;exitDx=0;exitDy=0;" edge="1" parent="WIyWlLk6GJQsqaUBKTNV-1" source="vKtdDU81Kl_IgtTz4fY1-14">
          <mxGeometry width="50" height="50" relative="1" as="geometry">
            <mxPoint x="390" y="360" as="sourcePoint" />
            <mxPoint x="414" y="530" as="targetPoint" />
          </mxGeometry>
        </mxCell>
        <mxCell id="vKtdDU81Kl_IgtTz4fY1-24" value="Go to team&lt;br&gt;selection" style="rounded=0;whiteSpace=wrap;html=1;" vertex="1" parent="WIyWlLk6GJQsqaUBKTNV-1">
          <mxGeometry x="354" y="530" width="120" height="60" as="geometry" />
        </mxCell>
      </root>
    </mxGraphModel>
  </diagram>
  <diagram id="acQmDboObx9o-aR4qZv6" name="selection">
    <mxGraphModel dx="1026" dy="650" grid="1" gridSize="10" guides="1" tooltips="1" connect="1" arrows="1" fold="1" page="1" pageScale="1" pageWidth="827" pageHeight="1169" background="#FFFFFF" math="0" shadow="0">
      <root>
        <mxCell id="0" />
        <mxCell id="1" parent="0" />
        <mxCell id="IspezRcyNSEwKfG-56qf-1" value="call away&lt;br&gt;players&lt;br&gt;from sheet" style="shape=cylinder3;whiteSpace=wrap;html=1;boundedLbl=1;backgroundOutline=1;size=15;" vertex="1" parent="1">
          <mxGeometry x="210" y="360" width="60" height="100" as="geometry" />
        </mxCell>
        <mxCell id="IspezRcyNSEwKfG-56qf-2" value="Output away &lt;br&gt;player info" style="rounded=0;whiteSpace=wrap;html=1;" vertex="1" parent="1">
          <mxGeometry x="180" y="510" width="120" height="60" as="geometry" />
        </mxCell>
        <mxCell id="IspezRcyNSEwKfG-56qf-3" value="" style="endArrow=classic;html=1;rounded=0;exitX=0.5;exitY=1;exitDx=0;exitDy=0;exitPerimeter=0;entryX=0.5;entryY=0;entryDx=0;entryDy=0;" edge="1" parent="1" source="IspezRcyNSEwKfG-56qf-1" target="IspezRcyNSEwKfG-56qf-2">
          <mxGeometry width="50" height="50" relative="1" as="geometry">
            <mxPoint x="238" y="470" as="sourcePoint" />
            <mxPoint x="238" y="510" as="targetPoint" />
          </mxGeometry>
        </mxCell>
        <mxCell id="IspezRcyNSEwKfG-56qf-4" value="get all players that are not LIV" style="shape=cylinder3;whiteSpace=wrap;html=1;boundedLbl=1;backgroundOutline=1;size=15;" vertex="1" parent="1">
          <mxGeometry x="50" y="20" width="60" height="100" as="geometry" />
        </mxCell>
        <mxCell id="1sX39Fmm3sN_W1HfxPrc-1" value="Print available players in position order" style="rounded=0;whiteSpace=wrap;html=1;" vertex="1" parent="1">
          <mxGeometry x="20" y="150" width="120" height="60" as="geometry" />
        </mxCell>
        <mxCell id="1sX39Fmm3sN_W1HfxPrc-2" value="Have 11 players been selected" style="rhombus;whiteSpace=wrap;html=1;" vertex="1" parent="1">
          <mxGeometry x="180" y="120" width="116" height="120" as="geometry" />
        </mxCell>
        <mxCell id="1sX39Fmm3sN_W1HfxPrc-3" value="User to select a player" style="shape=parallelogram;perimeter=parallelogramPerimeter;whiteSpace=wrap;html=1;fixedSize=1;" vertex="1" parent="1">
          <mxGeometry x="320" y="150" width="120" height="60" as="geometry" />
        </mxCell>
        <mxCell id="1sX39Fmm3sN_W1HfxPrc-4" value="Add player to home team list" style="rounded=0;whiteSpace=wrap;html=1;" vertex="1" parent="1">
          <mxGeometry x="450" y="260" width="120" height="60" as="geometry" />
        </mxCell>
        <mxCell id="1sX39Fmm3sN_W1HfxPrc-5" value="Valid ID&lt;br&gt;input" style="rhombus;whiteSpace=wrap;html=1;" vertex="1" parent="1">
          <mxGeometry x="470" y="140" width="80" height="80" as="geometry" />
        </mxCell>
        <mxCell id="1sX39Fmm3sN_W1HfxPrc-6" value="" style="endArrow=classic;html=1;rounded=0;exitX=0.5;exitY=1;exitDx=0;exitDy=0;exitPerimeter=0;entryX=0.5;entryY=0;entryDx=0;entryDy=0;" edge="1" parent="1" source="IspezRcyNSEwKfG-56qf-4" target="1sX39Fmm3sN_W1HfxPrc-1">
          <mxGeometry width="50" height="50" relative="1" as="geometry">
            <mxPoint x="190" y="280" as="sourcePoint" />
            <mxPoint x="240" y="230" as="targetPoint" />
          </mxGeometry>
        </mxCell>
        <mxCell id="1sX39Fmm3sN_W1HfxPrc-7" value="" style="endArrow=classic;html=1;rounded=0;exitX=1;exitY=0.5;exitDx=0;exitDy=0;entryX=0;entryY=0.5;entryDx=0;entryDy=0;" edge="1" parent="1" source="1sX39Fmm3sN_W1HfxPrc-1" target="1sX39Fmm3sN_W1HfxPrc-2">
          <mxGeometry width="50" height="50" relative="1" as="geometry">
            <mxPoint x="190" y="280" as="sourcePoint" />
            <mxPoint x="240" y="230" as="targetPoint" />
          </mxGeometry>
        </mxCell>
        <mxCell id="1sX39Fmm3sN_W1HfxPrc-8" value="" style="endArrow=classic;html=1;rounded=0;entryX=0;entryY=0.5;entryDx=0;entryDy=0;exitX=1;exitY=0.5;exitDx=0;exitDy=0;" edge="1" parent="1" source="1sX39Fmm3sN_W1HfxPrc-2" target="1sX39Fmm3sN_W1HfxPrc-3">
          <mxGeometry width="50" height="50" relative="1" as="geometry">
            <mxPoint x="190" y="280" as="sourcePoint" />
            <mxPoint x="240" y="230" as="targetPoint" />
          </mxGeometry>
        </mxCell>
        <mxCell id="1sX39Fmm3sN_W1HfxPrc-9" value="" style="endArrow=classic;html=1;rounded=0;exitX=1;exitY=0.5;exitDx=0;exitDy=0;entryX=0;entryY=0.5;entryDx=0;entryDy=0;" edge="1" parent="1" source="1sX39Fmm3sN_W1HfxPrc-3" target="1sX39Fmm3sN_W1HfxPrc-5">
          <mxGeometry width="50" height="50" relative="1" as="geometry">
            <mxPoint x="190" y="280" as="sourcePoint" />
            <mxPoint x="240" y="230" as="targetPoint" />
          </mxGeometry>
        </mxCell>
        <mxCell id="1sX39Fmm3sN_W1HfxPrc-10" value="" style="endArrow=classic;html=1;rounded=0;exitX=0.5;exitY=1;exitDx=0;exitDy=0;entryX=0.5;entryY=0;entryDx=0;entryDy=0;" edge="1" parent="1" source="1sX39Fmm3sN_W1HfxPrc-5" target="1sX39Fmm3sN_W1HfxPrc-4">
          <mxGeometry width="50" height="50" relative="1" as="geometry">
            <mxPoint x="190" y="280" as="sourcePoint" />
            <mxPoint x="240" y="230" as="targetPoint" />
          </mxGeometry>
        </mxCell>
        <mxCell id="tYFS4sS8aVmFrpJhcyCD-1" value="No" style="text;html=1;strokeColor=none;fillColor=none;align=center;verticalAlign=middle;whiteSpace=wrap;rounded=0;" vertex="1" parent="1">
          <mxGeometry x="280" y="150" width="60" height="30" as="geometry" />
        </mxCell>
        <mxCell id="tYFS4sS8aVmFrpJhcyCD-2" value="No" style="text;html=1;strokeColor=none;fillColor=none;align=center;verticalAlign=middle;whiteSpace=wrap;rounded=0;" vertex="1" parent="1">
          <mxGeometry x="410" y="70" width="60" height="30" as="geometry" />
        </mxCell>
        <mxCell id="tYFS4sS8aVmFrpJhcyCD-3" value="" style="endArrow=classic;html=1;rounded=0;exitX=0.5;exitY=0;exitDx=0;exitDy=0;entryX=0.5;entryY=0;entryDx=0;entryDy=0;" edge="1" parent="1" source="1sX39Fmm3sN_W1HfxPrc-5" target="1sX39Fmm3sN_W1HfxPrc-3">
          <mxGeometry width="50" height="50" relative="1" as="geometry">
            <mxPoint x="190" y="280" as="sourcePoint" />
            <mxPoint x="240" y="230" as="targetPoint" />
            <Array as="points">
              <mxPoint x="510" y="100" />
              <mxPoint x="380" y="100" />
            </Array>
          </mxGeometry>
        </mxCell>
        <mxCell id="tYFS4sS8aVmFrpJhcyCD-4" value="" style="endArrow=classic;html=1;rounded=0;entryX=0.5;entryY=0;entryDx=0;entryDy=0;exitX=1;exitY=0.5;exitDx=0;exitDy=0;" edge="1" parent="1" source="1sX39Fmm3sN_W1HfxPrc-4" target="1sX39Fmm3sN_W1HfxPrc-2">
          <mxGeometry width="50" height="50" relative="1" as="geometry">
            <mxPoint x="600" y="280" as="sourcePoint" />
            <mxPoint x="240" y="230" as="targetPoint" />
            <Array as="points">
              <mxPoint x="600" y="290" />
              <mxPoint x="600" y="60" />
              <mxPoint x="238" y="60" />
            </Array>
          </mxGeometry>
        </mxCell>
        <mxCell id="tYFS4sS8aVmFrpJhcyCD-5" value="" style="endArrow=classic;html=1;rounded=0;exitX=0.5;exitY=1;exitDx=0;exitDy=0;" edge="1" parent="1" source="1sX39Fmm3sN_W1HfxPrc-2" target="tYFS4sS8aVmFrpJhcyCD-6">
          <mxGeometry width="50" height="50" relative="1" as="geometry">
            <mxPoint x="190" y="280" as="sourcePoint" />
            <mxPoint x="240" y="290" as="targetPoint" />
          </mxGeometry>
        </mxCell>
        <mxCell id="tYFS4sS8aVmFrpJhcyCD-6" value="Output home&lt;br&gt;player info" style="rounded=0;whiteSpace=wrap;html=1;" vertex="1" parent="1">
          <mxGeometry x="180" y="270" width="120" height="60" as="geometry" />
        </mxCell>
        <mxCell id="tYFS4sS8aVmFrpJhcyCD-7" value="" style="endArrow=classic;html=1;rounded=0;exitX=0.5;exitY=1;exitDx=0;exitDy=0;entryX=0.5;entryY=0;entryDx=0;entryDy=0;entryPerimeter=0;" edge="1" parent="1" source="tYFS4sS8aVmFrpJhcyCD-6" target="IspezRcyNSEwKfG-56qf-1">
          <mxGeometry width="50" height="50" relative="1" as="geometry">
            <mxPoint x="280" y="280" as="sourcePoint" />
            <mxPoint x="330" y="230" as="targetPoint" />
          </mxGeometry>
        </mxCell>
        <mxCell id="9vvt1SxRH32wnlAbsyLi-1" value="Yes" style="text;html=1;strokeColor=none;fillColor=none;align=center;verticalAlign=middle;whiteSpace=wrap;rounded=0;" vertex="1" parent="1">
          <mxGeometry x="500" y="220" width="60" height="30" as="geometry" />
        </mxCell>
        <mxCell id="9vvt1SxRH32wnlAbsyLi-2" value="Yes" style="text;html=1;strokeColor=none;fillColor=none;align=center;verticalAlign=middle;whiteSpace=wrap;rounded=0;" vertex="1" parent="1">
          <mxGeometry x="230" y="240" width="60" height="30" as="geometry" />
        </mxCell>
        <mxCell id="DpwP6TfqjMUPdP3Kz0NA-1" value="" style="endArrow=classic;html=1;rounded=0;exitX=1;exitY=0.5;exitDx=0;exitDy=0;" edge="1" parent="1" source="IspezRcyNSEwKfG-56qf-2" target="DpwP6TfqjMUPdP3Kz0NA-2">
          <mxGeometry width="50" height="50" relative="1" as="geometry">
            <mxPoint x="280" y="280" as="sourcePoint" />
            <mxPoint x="410" y="540" as="targetPoint" />
          </mxGeometry>
        </mxCell>
        <mxCell id="DpwP6TfqjMUPdP3Kz0NA-2" value="Perform player adjustments" style="rounded=0;whiteSpace=wrap;html=1;" vertex="1" parent="1">
          <mxGeometry x="350" y="510" width="120" height="60" as="geometry" />
        </mxCell>
        <mxCell id="KbTjk_HXwkDs6jqwYGYj-1" value="Perform team calcs" style="rounded=0;whiteSpace=wrap;html=1;" vertex="1" parent="1">
          <mxGeometry x="510" y="510" width="120" height="60" as="geometry" />
        </mxCell>
        <mxCell id="KbTjk_HXwkDs6jqwYGYj-2" value="Go to match engine" style="rounded=0;whiteSpace=wrap;html=1;" vertex="1" parent="1">
          <mxGeometry x="670" y="510" width="120" height="60" as="geometry" />
        </mxCell>
        <mxCell id="KbTjk_HXwkDs6jqwYGYj-3" value="" style="endArrow=classic;html=1;rounded=0;exitX=1;exitY=0.5;exitDx=0;exitDy=0;entryX=0;entryY=0.5;entryDx=0;entryDy=0;" edge="1" parent="1" source="KbTjk_HXwkDs6jqwYGYj-1" target="KbTjk_HXwkDs6jqwYGYj-2">
          <mxGeometry width="50" height="50" relative="1" as="geometry">
            <mxPoint x="310" y="550" as="sourcePoint" />
            <mxPoint x="360" y="550" as="targetPoint" />
          </mxGeometry>
        </mxCell>
        <mxCell id="KbTjk_HXwkDs6jqwYGYj-4" value="" style="endArrow=classic;html=1;rounded=0;exitX=1;exitY=0.5;exitDx=0;exitDy=0;entryX=0;entryY=0.5;entryDx=0;entryDy=0;" edge="1" parent="1" source="DpwP6TfqjMUPdP3Kz0NA-2" target="KbTjk_HXwkDs6jqwYGYj-1">
          <mxGeometry width="50" height="50" relative="1" as="geometry">
            <mxPoint x="390" y="280" as="sourcePoint" />
            <mxPoint x="440" y="230" as="targetPoint" />
          </mxGeometry>
        </mxCell>
      </root>
    </mxGraphModel>
  </diagram>
  <diagram id="ZeG99PdoVDUyUdVfzDg8" name="Page-3">
    <mxGraphModel dx="1026" dy="650" grid="1" gridSize="10" guides="1" tooltips="1" connect="1" arrows="1" fold="1" page="1" pageScale="1" pageWidth="827" pageHeight="1169" math="0" shadow="0">
      <root>
        <mxCell id="0" />
        <mxCell id="1" parent="0" />
        <mxCell id="IQRajjLTKXPnrwIno9nj-1" value="Compare team values to calc team chances" style="rounded=0;whiteSpace=wrap;html=1;" vertex="1" parent="1">
          <mxGeometry x="154" y="100" width="120" height="60" as="geometry" />
        </mxCell>
        <mxCell id="IQRajjLTKXPnrwIno9nj-3" value="Use att/def stats to calc chances on target" style="rounded=0;whiteSpace=wrap;html=1;" vertex="1" parent="1">
          <mxGeometry x="154" y="200" width="120" height="60" as="geometry" />
        </mxCell>
        <mxCell id="IQRajjLTKXPnrwIno9nj-5" value="" style="endArrow=classic;html=1;rounded=0;exitX=0.5;exitY=1;exitDx=0;exitDy=0;entryX=0.5;entryY=0;entryDx=0;entryDy=0;" edge="1" parent="1" source="IQRajjLTKXPnrwIno9nj-1" target="IQRajjLTKXPnrwIno9nj-3">
          <mxGeometry width="50" height="50" relative="1" as="geometry">
            <mxPoint x="190" y="440" as="sourcePoint" />
            <mxPoint x="240" y="390" as="targetPoint" />
          </mxGeometry>
        </mxCell>
        <mxCell id="IQRajjLTKXPnrwIno9nj-6" value="User chances created to determine possession stats" style="rounded=0;whiteSpace=wrap;html=1;" vertex="1" parent="1">
          <mxGeometry x="154" y="300" width="120" height="60" as="geometry" />
        </mxCell>
        <mxCell id="IQRajjLTKXPnrwIno9nj-7" value="" style="endArrow=classic;html=1;rounded=0;exitX=0.5;exitY=1;exitDx=0;exitDy=0;entryX=0.5;entryY=0;entryDx=0;entryDy=0;" edge="1" parent="1" source="IQRajjLTKXPnrwIno9nj-3" target="IQRajjLTKXPnrwIno9nj-6">
          <mxGeometry width="50" height="50" relative="1" as="geometry">
            <mxPoint x="190" y="440" as="sourcePoint" />
            <mxPoint x="240" y="390" as="targetPoint" />
          </mxGeometry>
        </mxCell>
        <mxCell id="IQRajjLTKXPnrwIno9nj-8" value="calculate how many goals are scored" style="rounded=0;whiteSpace=wrap;html=1;" vertex="1" parent="1">
          <mxGeometry x="154" y="400" width="120" height="60" as="geometry" />
        </mxCell>
        <mxCell id="IQRajjLTKXPnrwIno9nj-9" value="" style="endArrow=classic;html=1;rounded=0;exitX=0.5;exitY=1;exitDx=0;exitDy=0;entryX=0.5;entryY=0;entryDx=0;entryDy=0;" edge="1" parent="1" source="IQRajjLTKXPnrwIno9nj-6" target="IQRajjLTKXPnrwIno9nj-8">
          <mxGeometry width="50" height="50" relative="1" as="geometry">
            <mxPoint x="190" y="440" as="sourcePoint" />
            <mxPoint x="240" y="390" as="targetPoint" />
          </mxGeometry>
        </mxCell>
        <mxCell id="IQRajjLTKXPnrwIno9nj-11" value="Generate number of goals scored" style="rounded=0;whiteSpace=wrap;html=1;" vertex="1" parent="1">
          <mxGeometry x="354" y="100" width="120" height="60" as="geometry" />
        </mxCell>
        <mxCell id="IQRajjLTKXPnrwIno9nj-12" value="Generate who scored and assissted the goals" style="rounded=0;whiteSpace=wrap;html=1;" vertex="1" parent="1">
          <mxGeometry x="354" y="300" width="120" height="60" as="geometry" />
        </mxCell>
        <mxCell id="IQRajjLTKXPnrwIno9nj-14" value="" style="endArrow=classic;html=1;rounded=0;exitX=1;exitY=0.5;exitDx=0;exitDy=0;entryX=0;entryY=0.5;entryDx=0;entryDy=0;" edge="1" parent="1" source="IQRajjLTKXPnrwIno9nj-8" target="IQRajjLTKXPnrwIno9nj-11">
          <mxGeometry width="50" height="50" relative="1" as="geometry">
            <mxPoint x="190" y="440" as="sourcePoint" />
            <mxPoint x="240" y="390" as="targetPoint" />
            <Array as="points">
              <mxPoint x="314" y="430" />
              <mxPoint x="314" y="130" />
            </Array>
          </mxGeometry>
        </mxCell>
        <mxCell id="IQRajjLTKXPnrwIno9nj-15" value="" style="endArrow=classic;html=1;rounded=0;exitX=0.5;exitY=1;exitDx=0;exitDy=0;" edge="1" parent="1" source="IQRajjLTKXPnrwIno9nj-11">
          <mxGeometry width="50" height="50" relative="1" as="geometry">
            <mxPoint x="190" y="440" as="sourcePoint" />
            <mxPoint x="414" y="200" as="targetPoint" />
          </mxGeometry>
        </mxCell>
        <mxCell id="IQRajjLTKXPnrwIno9nj-16" value="Output goal info" style="rounded=0;whiteSpace=wrap;html=1;" vertex="1" parent="1">
          <mxGeometry x="354" y="400" width="120" height="60" as="geometry" />
        </mxCell>
        <mxCell id="IQRajjLTKXPnrwIno9nj-17" value="" style="endArrow=classic;html=1;rounded=0;exitX=0.5;exitY=1;exitDx=0;exitDy=0;entryX=0.5;entryY=0;entryDx=0;entryDy=0;" edge="1" parent="1" source="IQRajjLTKXPnrwIno9nj-12" target="IQRajjLTKXPnrwIno9nj-16">
          <mxGeometry width="50" height="50" relative="1" as="geometry">
            <mxPoint x="504" y="440" as="sourcePoint" />
            <mxPoint x="554" y="390" as="targetPoint" />
          </mxGeometry>
        </mxCell>
        <mxCell id="IQRajjLTKXPnrwIno9nj-18" value="" style="endArrow=classic;html=1;rounded=0;exitX=1;exitY=0.5;exitDx=0;exitDy=0;entryX=0;entryY=0.5;entryDx=0;entryDy=0;" edge="1" parent="1" source="IQRajjLTKXPnrwIno9nj-16" target="IQRajjLTKXPnrwIno9nj-19">
          <mxGeometry width="50" height="50" relative="1" as="geometry">
            <mxPoint x="504" y="440" as="sourcePoint" />
            <mxPoint x="274" y="635" as="targetPoint" />
            <Array as="points">
              <mxPoint x="514" y="430" />
              <mxPoint x="514" y="130" />
            </Array>
          </mxGeometry>
        </mxCell>
        <mxCell id="IQRajjLTKXPnrwIno9nj-19" value="Find the player with the highest perf in each team and output motm info" style="rounded=0;whiteSpace=wrap;html=1;" vertex="1" parent="1">
          <mxGeometry x="554" y="100" width="120" height="60" as="geometry" />
        </mxCell>
        <mxCell id="IQRajjLTKXPnrwIno9nj-21" value="Generate top 5 most likely assisters and scorers" style="rounded=0;whiteSpace=wrap;html=1;" vertex="1" parent="1">
          <mxGeometry x="354" y="200" width="120" height="60" as="geometry" />
        </mxCell>
        <mxCell id="IQRajjLTKXPnrwIno9nj-22" value="" style="endArrow=classic;html=1;rounded=0;exitX=0.5;exitY=1;exitDx=0;exitDy=0;entryX=0.5;entryY=0;entryDx=0;entryDy=0;" edge="1" parent="1" source="IQRajjLTKXPnrwIno9nj-21" target="IQRajjLTKXPnrwIno9nj-12">
          <mxGeometry width="50" height="50" relative="1" as="geometry">
            <mxPoint x="504" y="440" as="sourcePoint" />
            <mxPoint x="554" y="390" as="targetPoint" />
          </mxGeometry>
        </mxCell>
      </root>
    </mxGraphModel>
  </diagram>
</mxfile>
